<svg width="40" height="40" viewBox="0 0 50 50" fill="none" xmlns="http://www.w3.org/2000/svg">
    <path
        d="M5.06405 11.9469L20.3125 29.6875V43.75L29.6875 37.5V29.6875L44.9359 11.9469C45.8047 10.9312 45.075 9.375 43.7281 9.375H6.27186C4.92499 9.375 4.1953 10.9312 5.06405 11.9469Z"
        fill="#F9ED69" />
    <path d="M26.5625 31.25V39.5828L29.6875 37.5V29.6875H28.125C27.2625 29.6875 26.5625 30.3875 26.5625 31.25Z"
        fill="#FBF4A5" />
    <path
        d="M43.7281 9.375H6.27186C4.92499 9.375 4.1953 10.9312 5.06405 11.9469L5.54061 12.5H40.6031C41.514 12.5 42.1297 13.925 42.1703 15.1641L44.9344 11.9469C45.8047 10.9312 45.075 9.375 43.7281 9.375Z"
        fill="#FBF4A5" />
    <path
        d="M23.4375 41.6672V29.6875L8.18905 11.9469C7.3203 10.9312 8.04999 9.375 9.39686 9.375H6.27186C4.92499 9.375 4.1953 10.9312 5.06405 11.9469L20.3125 29.6875V43.75L23.4375 41.6672Z"
        fill="#BBB24F" />
    <path
        d="M5.06405 11.9469L20.3125 29.6875V43.75L29.6875 37.5V29.6875L44.9359 11.9469C45.8047 10.9312 45.075 9.375 43.7281 9.375H6.27186C4.92499 9.375 4.1953 10.9312 5.06405 11.9469Z"
        stroke="#200F60" stroke-width="3" stroke-miterlimit="10" stroke-linecap="round" stroke-linejoin="round" />
    <path d="M34.375 14.0625H36.9359L32.8125 18.8609" stroke="white" stroke-width="4" stroke-miterlimit="10"
        stroke-linecap="round" stroke-linejoin="round" />
</svg>